<svg xmlns="http://www.w3.org/2000/svg" width="1792" height="1792"><path fill="#FFF" d="M1376 128c79.333 0 147.167 28.167 203.5 84.5S1664 336.667 1664 416v960c0 79.333-28.167 147.167-84.5 203.5S1455.333 1664 1376 1664H416c-79.333 0-147.167-28.167-203.5-84.5S128 1455.333 128 1376V416c0-79.333 28.167-147.167 84.5-203.5S336.667 128 416 128h960zM826 896c0-58.667-20.667-108.667-62-150s-91.333-62-150-62-108.667 20.667-150 62-62 91.333-62 150 20.667 108.667 62 150 91.333 62 150 62 108.667-20.667 150-62 62-91.333 62-150zm564 0c0-58.667-20.667-108.667-62-150s-91.333-62-150-62-108.667 20.667-150 62-62 91.333-62 150 20.667 108.667 62 150 91.333 62 150 62 108.667-20.667 150-62 62-91.333 62-150z"/></svg>