<svg xmlns="http://www.w3.org/2000/svg" width="1792" height="1792"><path fill="#FFF" d="M522 1352c-5.333 6-12 5-20-3-8.667-7.333-10-13.667-4-19 5.333-6 12-5 20 3 8 7.333 9.333 13.667 4 19zm-42-61c6 8 6 14.333 0 19-5.333 4-11 1.667-17-7s-6-14.667 0-18c6-4.667 11.667-2.667 17 6zm-61-60c-3.333 4.667-7.667 5.333-13 2-6.667-3.333-9-7.333-7-12 2-3.333 6.333-4 13-2 6.667 3.333 9 7.333 7 12zm31 34c-4 4.667-9.333 3.667-16-3-6-7.333-6.667-12.667-2-16 4-4 9.333-3 16 3 6 7.333 6.667 12.667 2 16zm129 112c-2.667 8-9 10-19 6-11.333-2.667-15.667-7.667-13-15s9-9.667 19-7c10.667 3.333 15 8.667 13 16zm63 5c0 7.333-5.333 11-16 11-11.333 1.333-17-2.333-17-11 0-7.333 5.333-11 16-11 11.333-1.333 17 2.333 17 11zm58-10c1.333 6.667-3.333 11.333-14 14s-16.667 0-18-8 3.333-13 14-15c10.667-1.333 16.667 1.667 18 9zm964-956v960c0 79.333-28.167 147.167-84.5 203.5S1455.333 1664 1376 1664h-224c-10.667 0-18.833-.333-24.5-1s-12.167-2.333-19.5-5-12.667-7.5-16-14.5-5-16.167-5-27.5v-239c0-64.667-17.333-112-52-142 38-4 72.167-10 102.5-18s61.667-21 94-39 59.333-40.167 81-66.5 39.333-61.333 53-105S1386 912.667 1386 856c0-80.667-26.333-149.333-79-206 24.667-60.667 22-128.667-8-204-18.667-6-45.667-2.333-81 11s-66 28-92 44l-38 24c-62-17.333-126-26-192-26s-130 8.667-192 26c-10.667-7.333-24.833-16.333-42.5-27S616 474.5 578 459.5 511.333 440 492 446c-29.333 75.333-31.667 143.333-7 204-52.667 56.667-79 125.333-79 206 0 56.667 6.833 106.667 20.5 150s31.167 78.333 52.5 105 48.167 49 80.5 67 63.667 31 94 39 64.5 14 102.5 18c-26.667 24-43 58.333-49 103-14 6.667-29 11.667-45 15s-35 5-57 5-43.833-7.167-65.5-21.5-40.167-35.167-55.5-62.5c-12.667-21.333-28.833-38.667-48.5-52s-36.167-21.333-49.5-24l-20-3c-14 0-23.667 1.5-29 4.5s-7 6.833-5 11.5 5 9.333 9 14 8.333 8.667 13 12l7 5c14.667 6.667 29.167 19.333 43.5 38 14.333 18.667 24.833 35.667 31.5 51l10 23c8.667 25.333 23.333 45.833 44 61.5s43 25.667 67 30 47.167 6.667 69.5 7 40.833-.833 55.5-3.5l23-4c0 25.333.167 59.667.5 103s.5 66 .5 68c0 14.667-3.667 25.833-11 33.5s-14.667 12-22 13-18.333 1.5-33 1.5H416c-79.333 0-147.167-28.167-203.5-84.5S128 1455.333 128 1376V416c0-79.333 28.167-147.167 84.5-203.5S336.667 128 416 128h960c79.333 0 147.167 28.167 203.5 84.5S1664 336.667 1664 416z"/></svg>