<svg xmlns="http://www.w3.org/2000/svg" width="1792" height="1792"><path fill="#FFF" d="M1408 610c-37.333 16.667-77.667 28-121 34 45.333-26.667 76.333-65.667 93-117-43.333 25.333-88 42.333-134 51-40.667-44-91.667-66-153-66-58 0-107.5 20.5-148.5 61.5S883 664 883 722c0 19.333 1.667 35.333 5 48-86-4.667-166.667-26.333-242-65s-139.333-90.333-192-155c-19.333 33.333-29 68.667-29 106 0 76 30.333 134.333 91 175-31.333-.667-64.667-9.333-100-26v2c0 50 16.667 94.5 50 133.5s74.333 63.167 123 72.5c-19.333 5.333-36.333 8-51 8-8.667 0-21.667-1.333-39-4 14 42 38.833 76.667 74.5 104s76.167 41.333 121.5 42c-77.333 60-164.333 90-261 90-17.333 0-34-1-50-3 98.667 62.667 206 94 322 94 74.667 0 144.667-11.833 210-35.5s121.333-55.333 168-95 86.833-85.333 120.5-137 58.667-105.667 75-162S1304 802 1304 746c0-12-.333-21-1-27 42-30 77-66.333 105-109zm256-194v960c0 79.333-28.167 147.167-84.5 203.5S1455.333 1664 1376 1664H416c-79.333 0-147.167-28.167-203.5-84.5S128 1455.333 128 1376V416c0-79.333 28.167-147.167 84.5-203.5S336.667 128 416 128h960c79.333 0 147.167 28.167 203.5 84.5S1664 336.667 1664 416z"/></svg>